<svg xmlns="http://www.w3.org/2000/svg" xmlns:xlink="http://www.w3.org/1999/xlink" version="1.1" width="256" height="256" viewBox="0 0 256 256" xml:space="preserve">

<defs>
</defs>
<g style="stroke: none; stroke-width: 0; stroke-dasharray: none; stroke-linecap: butt; stroke-linejoin: miter; stroke-miterlimit: 10; fill: none; fill-rule: nonzero; opacity: 1;" transform="translate(1.4065934065934016 1.4065934065934016) scale(2.81 2.81)" >
	<path d="M 51.889 5.266 c -0.194 -0.599 -0.703 -1.027 -1.326 -1.118 l -2.826 -0.411 l -1.265 -2.561 V 1.175 C 46.193 0.611 45.629 0.261 45 0.261 c -0.629 0 -1.194 0.351 -1.473 0.916 l -1.264 2.561 l -2.827 0.411 c -0.623 0.091 -1.131 0.52 -1.326 1.118 c -0.194 0.599 -0.035 1.244 0.416 1.684 l 2.045 1.994 l -0.483 2.815 c -0.106 0.621 0.145 1.236 0.654 1.606 c 0.508 0.37 1.17 0.417 1.729 0.125 L 45 12.161 l 2.528 1.329 c 0.243 0.127 0.505 0.19 0.766 0.19 c 0.339 0 0.676 -0.106 0.964 -0.315 c 0.51 -0.37 0.76 -0.985 0.653 -1.606 l -0.482 -2.815 l 2.046 -1.994 C 51.926 6.51 52.084 5.865 51.889 5.266 z" style="stroke: none; stroke-width: 1; stroke-dasharray: none; stroke-linecap: butt; stroke-linejoin: miter; stroke-miterlimit: 10; fill: rgb(255,209,100); fill-rule: nonzero; opacity: 1;" transform=" matrix(1 0 0 1 0 0) " stroke-linecap="round" />
	<path d="M 51.889 81.325 c -0.193 -0.6 -0.702 -1.028 -1.326 -1.119 l -2.826 -0.411 l -1.265 -2.561 c -0.278 -0.565 -0.843 -0.916 -1.473 -0.916 c -0.629 0 -1.194 0.351 -1.473 0.916 l -1.264 2.561 l -2.828 0.411 c -0.623 0.091 -1.131 0.521 -1.325 1.119 c -0.194 0.599 -0.034 1.243 0.416 1.682 l 2.045 1.995 l -0.483 2.815 c -0.106 0.621 0.145 1.236 0.654 1.606 c 0.288 0.209 0.625 0.315 0.963 0.315 c 0.261 0 0.523 -0.063 0.766 -0.191 L 45 88.219 l 2.528 1.329 c 0.555 0.293 1.219 0.247 1.728 -0.124 c 0.511 -0.37 0.761 -0.985 0.654 -1.606 l -0.482 -2.815 l 2.046 -1.995 C 51.925 82.568 52.084 81.924 51.889 81.325 z" style="stroke: none; stroke-width: 1; stroke-dasharray: none; stroke-linecap: butt; stroke-linejoin: miter; stroke-miterlimit: 10; fill: rgb(255,209,100); fill-rule: nonzero; opacity: 1;" transform=" matrix(1 0 0 1 0 0) " stroke-linecap="round" />
	<path d="M 13.861 43.295 c -0.194 -0.599 -0.703 -1.027 -1.326 -1.118 l -2.827 -0.411 l -1.264 -2.562 C 8.165 38.64 7.6 38.29 6.971 38.29 s -1.194 0.351 -1.473 0.916 l -1.264 2.561 l -2.827 0.411 c -0.623 0.091 -1.131 0.52 -1.326 1.118 c -0.194 0.599 -0.035 1.244 0.416 1.683 l 2.045 1.995 l -0.483 2.815 c -0.106 0.621 0.145 1.236 0.654 1.606 c 0.288 0.209 0.625 0.315 0.963 0.315 c 0.261 0 0.523 -0.063 0.766 -0.191 l 2.528 -1.329 l 2.528 1.329 c 0.558 0.295 1.221 0.247 1.729 -0.124 c 0.51 -0.37 0.76 -0.985 0.654 -1.606 L 11.4 46.973 l 2.045 -1.994 C 13.896 44.54 14.055 43.895 13.861 43.295 z" style="stroke: none; stroke-width: 1; stroke-dasharray: none; stroke-linecap: butt; stroke-linejoin: miter; stroke-miterlimit: 10; fill: rgb(255,209,100); fill-rule: nonzero; opacity: 1;" transform=" matrix(1 0 0 1 0 0) " stroke-linecap="round" />
	<path d="M 89.918 43.295 c -0.194 -0.599 -0.703 -1.027 -1.326 -1.118 l -2.826 -0.411 l -1.265 -2.561 c -0.278 -0.564 -0.843 -0.916 -1.473 -0.916 c -0.63 0 -1.194 0.351 -1.473 0.916 l -1.265 2.561 l -2.826 0.411 c -0.623 0.091 -1.132 0.519 -1.326 1.118 c -0.194 0.599 -0.036 1.244 0.415 1.684 l 2.046 1.994 l -0.482 2.815 c -0.106 0.621 0.144 1.236 0.654 1.606 c 0.287 0.209 0.624 0.315 0.963 0.315 c 0.261 0 0.523 -0.063 0.766 -0.191 l 2.528 -1.329 l 2.528 1.329 c 0.555 0.293 1.22 0.247 1.728 -0.124 c 0.511 -0.37 0.761 -0.985 0.654 -1.606 l -0.482 -2.815 l 2.046 -1.995 C 89.954 44.539 90.113 43.894 89.918 43.295 z" style="stroke: none; stroke-width: 1; stroke-dasharray: none; stroke-linecap: butt; stroke-linejoin: miter; stroke-miterlimit: 10; fill: rgb(255,209,100); fill-rule: nonzero; opacity: 1;" transform=" matrix(1 0 0 1 0 0) " stroke-linecap="round" />
	<path d="M 33.226 10.361 c -0.194 -0.599 -0.703 -1.027 -1.326 -1.118 l -2.827 -0.41 l -1.264 -2.561 l 0 0 c -0.279 -0.564 -0.843 -0.915 -1.473 -0.915 c -0.629 0 -1.194 0.351 -1.473 0.916 l -1.264 2.561 l -2.827 0.41 c -0.623 0.091 -1.131 0.52 -1.326 1.118 c -0.194 0.599 -0.035 1.244 0.416 1.683 l 2.045 1.994 l -0.483 2.816 c -0.106 0.621 0.145 1.236 0.654 1.606 c 0.288 0.209 0.625 0.315 0.963 0.315 c 0.261 0 0.523 -0.063 0.766 -0.19 l 2.528 -1.329 l 2.528 1.329 c 0.559 0.294 1.221 0.247 1.729 -0.124 c 0.51 -0.37 0.76 -0.986 0.654 -1.606 l -0.483 -2.816 l 2.045 -1.994 C 33.261 11.605 33.42 10.96 33.226 10.361 z" style="stroke: none; stroke-width: 1; stroke-dasharray: none; stroke-linecap: butt; stroke-linejoin: miter; stroke-miterlimit: 10; fill: rgb(255,209,100); fill-rule: nonzero; opacity: 1;" transform=" matrix(1 0 0 1 0 0) " stroke-linecap="round" />
	<path d="M 18.955 23.896 c -0.195 -0.599 -0.703 -1.026 -1.325 -1.117 l -2.827 -0.411 l -1.264 -2.561 c -0.278 -0.565 -0.843 -0.916 -1.473 -0.916 c -0.63 0 -1.194 0.351 -1.472 0.915 l -1.265 2.562 l -2.826 0.411 c -0.623 0.09 -1.131 0.518 -1.326 1.117 c -0.195 0.599 -0.036 1.245 0.416 1.685 l 2.045 1.994 L 7.154 30.39 c -0.106 0.621 0.145 1.236 0.654 1.606 c 0.509 0.37 1.171 0.418 1.729 0.125 l 2.528 -1.33 l 2.529 1.33 c 0.243 0.127 0.505 0.19 0.766 0.19 c 0.339 0 0.676 -0.106 0.964 -0.315 c 0.509 -0.37 0.76 -0.985 0.653 -1.606 l -0.483 -2.815 l 2.046 -1.994 C 18.991 25.14 19.151 24.495 18.955 23.896 z" style="stroke: none; stroke-width: 1; stroke-dasharray: none; stroke-linecap: butt; stroke-linejoin: miter; stroke-miterlimit: 10; fill: rgb(255,209,100); fill-rule: nonzero; opacity: 1;" transform=" matrix(1 0 0 1 0 0) " stroke-linecap="round" />
	<path d="M 70.904 10.361 c -0.194 -0.599 -0.703 -1.027 -1.326 -1.118 l -2.826 -0.41 l -1.264 -2.561 c -0.279 -0.565 -0.844 -0.916 -1.474 -0.916 s -1.194 0.351 -1.474 0.916 l -1.264 2.561 l -2.826 0.41 c -0.623 0.091 -1.132 0.519 -1.326 1.118 c -0.194 0.599 -0.036 1.244 0.415 1.684 l 2.046 1.994 l -0.482 2.816 c -0.106 0.621 0.144 1.236 0.654 1.606 c 0.287 0.209 0.624 0.315 0.963 0.315 c 0.261 0 0.523 -0.063 0.765 -0.19 l 2.529 -1.329 l 2.528 1.329 c 0.556 0.293 1.219 0.247 1.729 -0.124 c 0.511 -0.37 0.761 -0.985 0.654 -1.606 l -0.482 -2.816 l 2.046 -1.994 C 70.94 11.604 71.098 10.959 70.904 10.361 z" style="stroke: none; stroke-width: 1; stroke-dasharray: none; stroke-linecap: butt; stroke-linejoin: miter; stroke-miterlimit: 10; fill: rgb(255,209,100); fill-rule: nonzero; opacity: 1;" transform=" matrix(1 0 0 1 0 0) " stroke-linecap="round" />
	<path d="M 84.824 24.282 c -0.194 -0.6 -0.702 -1.028 -1.326 -1.119 l -2.827 -0.411 l -1.264 -2.562 c -0.279 -0.564 -0.844 -0.914 -1.473 -0.914 c -0.001 0 -0.001 0 -0.002 0 c -0.629 0 -1.192 0.352 -1.471 0.916 l -1.265 2.561 l -2.826 0.411 c -0.623 0.091 -1.132 0.519 -1.326 1.118 c -0.194 0.599 -0.036 1.244 0.415 1.684 l 2.046 1.994 l -0.482 2.815 c -0.106 0.621 0.144 1.236 0.653 1.606 c 0.288 0.209 0.625 0.315 0.964 0.315 c 0.261 0 0.522 -0.063 0.766 -0.19 l 2.528 -1.33 l 2.528 1.33 c 0.557 0.293 1.222 0.245 1.729 -0.125 c 0.51 -0.37 0.76 -0.985 0.653 -1.606 l -0.482 -2.815 l 2.044 -1.993 C 84.858 25.526 85.018 24.881 84.824 24.282 z" style="stroke: none; stroke-width: 1; stroke-dasharray: none; stroke-linecap: butt; stroke-linejoin: miter; stroke-miterlimit: 10; fill: rgb(255,209,100); fill-rule: nonzero; opacity: 1;" transform=" matrix(1 0 0 1 0 0) " stroke-linecap="round" />
	<path d="M 18.197 62.692 c -0.195 -0.598 -0.703 -1.025 -1.325 -1.115 l -2.828 -0.412 l -1.263 -2.561 h 0 c -0.279 -0.565 -0.843 -0.916 -1.473 -0.916 h 0 c -0.63 0.001 -1.194 0.352 -1.472 0.916 l -1.264 2.561 l -2.827 0.412 c -0.623 0.09 -1.131 0.518 -1.326 1.116 c -0.195 0.599 -0.036 1.244 0.416 1.685 l 2.045 1.994 l -0.483 2.815 c -0.106 0.621 0.145 1.236 0.654 1.606 c 0.288 0.209 0.625 0.315 0.963 0.315 c 0.261 0 0.523 -0.063 0.766 -0.191 l 2.528 -1.329 l 2.528 1.329 c 0.557 0.294 1.221 0.246 1.73 -0.125 c 0.509 -0.37 0.759 -0.985 0.653 -1.605 l -0.483 -2.815 l 2.046 -1.995 C 18.234 63.937 18.392 63.291 18.197 62.692 z" style="stroke: none; stroke-width: 1; stroke-dasharray: none; stroke-linecap: butt; stroke-linejoin: miter; stroke-miterlimit: 10; fill: rgb(255,209,100); fill-rule: nonzero; opacity: 1;" transform=" matrix(1 0 0 1 0 0) " stroke-linecap="round" />
	<path d="M 84.824 62.312 c -0.193 -0.6 -0.701 -1.029 -1.326 -1.12 l -2.827 -0.411 l -1.264 -2.561 c -0.279 -0.564 -0.844 -0.915 -1.473 -0.915 c -0.001 0 -0.001 0 -0.002 0 c -0.629 0.001 -1.192 0.352 -1.471 0.916 l -1.265 2.561 l -2.827 0.411 c -0.623 0.091 -1.132 0.52 -1.325 1.119 c -0.194 0.599 -0.035 1.243 0.415 1.682 l 2.046 1.995 l -0.482 2.815 c -0.106 0.621 0.144 1.236 0.654 1.606 c 0.287 0.209 0.624 0.315 0.963 0.315 c 0.261 0 0.523 -0.063 0.766 -0.191 l 2.528 -1.329 l 2.527 1.329 c 0.56 0.295 1.221 0.246 1.73 -0.124 c 0.51 -0.37 0.76 -0.985 0.653 -1.606 l -0.482 -2.815 l 2.044 -1.994 C 84.858 63.555 85.018 62.91 84.824 62.312 z" style="stroke: none; stroke-width: 1; stroke-dasharray: none; stroke-linecap: butt; stroke-linejoin: miter; stroke-miterlimit: 10; fill: rgb(255,209,100); fill-rule: nonzero; opacity: 1;" transform=" matrix(1 0 0 1 0 0) " stroke-linecap="round" />
	<path d="M 33.226 75.376 c -0.194 -0.599 -0.702 -1.028 -1.327 -1.119 l -2.827 -0.411 l -1.264 -2.561 c -0.279 -0.565 -0.843 -0.916 -1.473 -0.916 c -0.629 0 -1.194 0.351 -1.473 0.916 l -1.264 2.561 l -2.828 0.411 c -0.623 0.091 -1.131 0.521 -1.325 1.119 c -0.194 0.599 -0.034 1.243 0.416 1.682 l 2.045 1.995 l -0.483 2.815 c -0.106 0.621 0.145 1.236 0.654 1.606 c 0.288 0.209 0.625 0.315 0.963 0.315 c 0.261 0 0.523 -0.063 0.766 -0.191 l 2.528 -1.329 l 2.528 1.329 c 0.559 0.295 1.221 0.246 1.729 -0.124 c 0.51 -0.37 0.76 -0.985 0.654 -1.606 l -0.483 -2.815 l 2.044 -1.994 C 33.26 76.619 33.42 75.975 33.226 75.376 z" style="stroke: none; stroke-width: 1; stroke-dasharray: none; stroke-linecap: butt; stroke-linejoin: miter; stroke-miterlimit: 10; fill: rgb(255,209,100); fill-rule: nonzero; opacity: 1;" transform=" matrix(1 0 0 1 0 0) " stroke-linecap="round" />
	<path d="M 70.904 75.376 c -0.193 -0.6 -0.702 -1.028 -1.326 -1.119 l -2.826 -0.411 l -1.264 -2.561 c -0.279 -0.564 -0.844 -0.916 -1.474 -0.916 s -1.194 0.352 -1.474 0.916 l -1.264 2.561 l -2.827 0.411 c -0.623 0.091 -1.132 0.52 -1.325 1.119 c -0.194 0.599 -0.035 1.243 0.415 1.682 l 2.046 1.995 l -0.482 2.815 c -0.106 0.621 0.144 1.236 0.654 1.606 c 0.287 0.209 0.624 0.315 0.963 0.315 c 0.261 0 0.523 -0.063 0.766 -0.191 l 2.528 -1.329 l 2.528 1.329 c 0.556 0.293 1.219 0.247 1.729 -0.124 c 0.511 -0.37 0.761 -0.985 0.654 -1.606 l -0.482 -2.815 l 2.046 -1.995 C 70.939 76.619 71.098 75.975 70.904 75.376 z" style="stroke: none; stroke-width: 1; stroke-dasharray: none; stroke-linecap: butt; stroke-linejoin: miter; stroke-miterlimit: 10; fill: rgb(255,209,100); fill-rule: nonzero; opacity: 1;" transform=" matrix(1 0 0 1 0 0) " stroke-linecap="round" />
	<path d="M 28.125 52.491 c -4.131 0 -7.491 -3.36 -7.491 -7.491 s 3.36 -7.491 7.491 -7.491 c 1.192 0 2.379 0.288 3.432 0.831 c 0.491 0.253 0.684 0.856 0.43 1.347 c -0.254 0.491 -0.857 0.684 -1.347 0.43 c -0.782 -0.404 -1.628 -0.608 -2.515 -0.608 c -3.028 0 -5.491 2.463 -5.491 5.491 c 0 3.028 2.463 5.491 5.491 5.491 c 0.687 0 1.349 -0.123 1.977 -0.366 v -3.644 h -2.148 c -0.552 0 -1 -0.447 -1 -1 c 0 -0.552 0.448 -1 1 -1 h 3.148 c 0.552 0 1 0.448 1 1 v 5.288 c 0 0.374 -0.208 0.717 -0.541 0.889 C 30.506 52.203 29.318 52.491 28.125 52.491 z" style="stroke: none; stroke-width: 1; stroke-dasharray: none; stroke-linecap: butt; stroke-linejoin: miter; stroke-miterlimit: 10; fill: rgb(115,155,215); fill-rule: nonzero; opacity: 1;" transform=" matrix(1 0 0 1 0 0) " stroke-linecap="round" />
	<path d="M 39.333 52.491 c -1.193 0 -2.382 -0.288 -3.437 -0.833 c -0.332 -0.172 -0.541 -0.515 -0.541 -0.889 l 0.003 -11.542 c 0 -0.374 0.209 -0.717 0.542 -0.888 c 1.053 -0.543 2.24 -0.831 3.432 -0.831 c 4.13 0 7.491 3.36 7.491 7.491 S 43.464 52.491 39.333 52.491 z M 37.356 50.125 c 0.627 0.243 1.29 0.366 1.977 0.366 c 3.028 0 5.491 -2.463 5.491 -5.491 c 0 -3.028 -2.463 -5.491 -5.491 -5.491 c -0.686 0 -1.348 0.123 -1.974 0.365 L 37.356 50.125 z" style="stroke: none; stroke-width: 1; stroke-dasharray: none; stroke-linecap: butt; stroke-linejoin: miter; stroke-miterlimit: 10; fill: rgb(115,155,215); fill-rule: nonzero; opacity: 1;" transform=" matrix(1 0 0 1 0 0) " stroke-linecap="round" />
	<path d="M 52.685 37.509 c -0.894 0 -1.749 0.174 -2.542 0.517 c -0.366 0.158 -0.604 0.519 -0.604 0.917 l -0.002 6.974 c 0 0 0 0 0 0 c 0 0 0 0 0 0 v 5.574 c 0 0.553 0.447 1 1 1 s 1 -0.447 1 -1 v -4.243 c 0.374 0.066 0.756 0.106 1.147 0.106 c 3.133 0 5.682 -2.208 5.682 -4.922 S 55.817 37.509 52.685 37.509 z M 52.685 45.354 c -0.391 0 -0.779 -0.05 -1.147 -0.146 l 0.002 -5.552 c 0.368 -0.096 0.756 -0.146 1.146 -0.146 c 2.03 0 3.682 1.311 3.682 2.922 S 54.715 45.354 52.685 45.354 z" style="stroke: none; stroke-width: 1; stroke-dasharray: none; stroke-linecap: butt; stroke-linejoin: miter; stroke-miterlimit: 10; fill: rgb(115,155,215); fill-rule: nonzero; opacity: 1;" transform=" matrix(1 0 0 1 0 0) " stroke-linecap="round" />
	<path d="M 69.366 42.431 c 0 -2.714 -2.549 -4.922 -5.682 -4.922 c -0.894 0 -1.749 0.174 -2.542 0.517 c -0.366 0.158 -0.604 0.519 -0.604 0.917 l -0.002 6.974 c 0 0 0 0 0 0 c 0 0 0 0 0 0 v 5.574 c 0 0.553 0.447 1 1 1 s 1 -0.447 1 -1 v -4.243 c 0.374 0.066 0.756 0.106 1.147 0.106 c 0.756 0 1.477 -0.131 2.137 -0.364 c 0.997 0.748 1.545 2.319 1.545 4.502 c 0 0.553 0.447 1 1 1 s 1 -0.447 1 -1 c 0 -2.419 -0.6 -4.326 -1.716 -5.542 C 68.707 45.055 69.366 43.809 69.366 42.431 z M 63.685 45.354 c -0.391 0 -0.779 -0.05 -1.147 -0.146 l 0.002 -5.552 c 0.368 -0.096 0.756 -0.146 1.146 -0.146 c 2.03 0 3.682 1.311 3.682 2.922 S 65.715 45.354 63.685 45.354 z" style="stroke: none; stroke-width: 1; stroke-dasharray: none; stroke-linecap: butt; stroke-linejoin: miter; stroke-miterlimit: 10; fill: rgb(115,155,215); fill-rule: nonzero; opacity: 1;" transform=" matrix(1 0 0 1 0 0) " stroke-linecap="round" />
</g>
</svg>